<svg width="52" height="52" viewBox="0 0 52 52" fill="none" xmlns="http://www.w3.org/2000/svg">
<path fill-rule="evenodd" clip-rule="evenodd" d="M30.875 8.9375V4.875C30.875 4.4265 31.239 4.0625 31.6875 4.0625H34.9375C35.386 4.0625 35.75 4.4265 35.75 4.875V8.9375H44.6875C45.3343 8.9375 45.9542 9.19425 46.4108 9.65169C46.8682 10.1083 47.125 10.7283 47.125 11.375V16.25C47.125 16.8968 46.8682 17.5167 46.4108 17.9733C46.1516 18.2333 45.8396 18.4283 45.5 18.5478V39.2787C45.5 40.3561 45.0718 41.3896 44.3105 42.1517C43.0788 43.3826 40.9451 45.5163 39.7142 46.748C38.9521 47.5093 37.9186 47.9375 36.8412 47.9375H7.3125C6.864 47.9375 6.5 47.5735 6.5 47.125V18.5478C6.16037 18.4283 5.84838 18.2333 5.58919 17.9733C5.13175 17.5167 4.875 16.8968 4.875 16.25C4.875 14.8338 4.875 12.7912 4.875 11.375C4.875 10.7283 5.13175 10.1083 5.58919 9.65169C6.04581 9.19425 6.66575 8.9375 7.3125 8.9375H16.25V4.875C16.25 4.4265 16.614 4.0625 17.0625 4.0625H20.3125C20.761 4.0625 21.125 4.4265 21.125 4.875V8.9375H30.875ZM43.875 39V18.6875H8.125V46.3125H36.5625C37.011 46.3125 37.375 45.9485 37.375 45.5C37.375 43.5744 37.375 40.625 37.375 40.625C37.375 40.1765 37.739 39.8125 38.1875 39.8125H43.0625C43.2778 39.8125 43.485 39.7272 43.6369 39.5744C43.7897 39.4225 43.875 39.2153 43.875 39ZM17.875 5.6875V12.1875H19.5V5.6875H17.875ZM32.5 5.6875V12.1875H34.125V5.6875H32.5Z" fill="#03014C"/>
<path fill-rule="evenodd" clip-rule="evenodd" d="M11.375 21.125C11.375 21.3405 11.2894 21.5472 11.137 21.6995C10.9847 21.8519 10.778 21.9375 10.5625 21.9375C10.347 21.9375 10.1403 21.8519 9.98798 21.6995C9.8356 21.5472 9.75 21.3405 9.75 21.125C9.75 20.9095 9.8356 20.7028 9.98798 20.5505C10.1403 20.3981 10.347 20.3125 10.5625 20.3125C10.778 20.3125 10.9847 20.3981 11.137 20.5505C11.2894 20.7028 11.375 20.9095 11.375 21.125Z" fill="#03014C"/>
<path fill-rule="evenodd" clip-rule="evenodd" d="M14.625 21.125C14.625 21.3405 14.5394 21.5472 14.387 21.6995C14.2347 21.8519 14.028 21.9375 13.8125 21.9375C13.597 21.9375 13.3903 21.8519 13.238 21.6995C13.0856 21.5472 13 21.3405 13 21.125C13 20.9095 13.0856 20.7028 13.238 20.5505C13.3903 20.3981 13.597 20.3125 13.8125 20.3125C14.028 20.3125 14.2347 20.3981 14.387 20.5505C14.5394 20.7028 14.625 20.9095 14.625 21.125Z" fill="#03014C"/>
<path fill-rule="evenodd" clip-rule="evenodd" d="M17.875 21.125C17.875 21.3405 17.7894 21.5472 17.637 21.6995C17.4847 21.8519 17.278 21.9375 17.0625 21.9375C16.847 21.9375 16.6403 21.8519 16.488 21.6995C16.3356 21.5472 16.25 21.3405 16.25 21.125C16.25 20.9095 16.3356 20.7028 16.488 20.5505C16.6403 20.3981 16.847 20.3125 17.0625 20.3125C17.278 20.3125 17.4847 20.3981 17.637 20.5505C17.7894 20.7028 17.875 20.9095 17.875 21.125Z" fill="#03014C"/>
<path fill-rule="evenodd" clip-rule="evenodd" d="M34.125 31.2701L26.3404 34.863C26.1243 34.9629 25.8757 34.9629 25.6596 34.863L15.0971 29.988C14.8094 29.8555 14.625 29.5671 14.625 29.2502C14.625 28.9333 14.8094 28.6449 15.0971 28.5125L25.6596 23.6375C25.8757 23.5375 26.1243 23.5375 26.3404 23.6375L36.9029 28.5125C37.1906 28.6449 37.375 28.9333 37.375 29.2502C37.375 29.5671 37.1906 29.8555 36.9029 29.988L35.75 30.5201V40.6252C35.75 41.0737 35.386 41.4377 34.9375 41.4377C34.489 41.4377 34.125 41.0737 34.125 40.6252V31.2701Z" fill="#03014C"/>
<path fill-rule="evenodd" clip-rule="evenodd" d="M31.6875 34.1836V38.1868C31.6875 38.4947 31.5136 38.7758 31.2382 38.9132L26.3632 41.3507C26.1349 41.4652 25.8651 41.4652 25.6368 41.3507L20.7618 38.9132C20.4864 38.7758 20.3125 38.4947 20.3125 38.1868V34.1836L24.9787 36.3375C25.6271 36.6365 26.3729 36.6365 27.0213 36.3375L31.6875 34.1836Z" fill="#03014C"/>
</svg>
