<svg width="90" height="81" viewBox="0 0 90 81" fill="none" xmlns="http://www.w3.org/2000/svg">
<path d="M53.5 0C44.0406 0 34.9687 3.75773 28.2799 10.4465C21.5911 17.1353 17.8333 26.2073 17.8333 35.6667C17.8333 45.1261 21.5911 54.198 28.2799 60.8868C34.9687 67.5756 44.0406 71.3333 53.5 71.3333C62.9594 71.3333 72.0313 67.5756 78.7201 60.8868C85.4089 54.198 89.1667 45.1261 89.1667 35.6667C89.1667 26.2073 85.4089 17.1353 78.7201 10.4465C72.0313 3.75773 62.9594 0 53.5 0ZM13.0629 17.0308C8.98675 20.3744 5.70146 24.579 3.44291 29.3428C1.18436 34.1065 0.00858609 39.3113 0 44.5833C0 54.0427 3.75773 63.1147 10.4465 69.8035C17.1353 76.4923 26.2073 80.25 35.6667 80.25C38.52 80.25 41.3287 79.8933 44.0483 79.2246C36.2017 77.4858 28.9792 73.5625 23.0496 68.1679C18.7798 65.884 15.2101 62.4839 12.7211 58.3304C10.2321 54.1768 8.9172 49.4256 8.91667 44.5833C8.91667 43.2458 9.05042 41.9529 9.22875 40.6154C9.05042 38.9658 8.91667 37.3162 8.91667 35.6667C8.91667 29.2467 10.3433 22.8713 13.0629 17.0308ZM71.7346 18.19L78.0208 24.5208L49.0417 53.5L32.1446 36.6029L38.4754 30.2721L49.0417 40.8829" fill="#97060B"/>
</svg>
