<svg width="30" height="28" viewBox="0 0 30 28" fill="none" xmlns="http://www.w3.org/2000/svg">
<path fill-rule="evenodd" clip-rule="evenodd" d="M15.2984 0.0136719C23.3223 0.0136719 29.8272 6.28212 29.8272 14.014C29.8272 21.7459 23.3224 28.014 15.2984 28.014C7.27436 28.014 0.769531 21.7456 0.769531 14.014C0.769531 6.28239 7.27436 0.0136719 15.2984 0.0136719ZM22.3385 7.22985C22.198 7.0944 22.013 7.01012 21.8151 6.99136C21.6173 6.9726 21.4188 7.02053 21.2535 7.12698C21.0882 7.23343 20.9664 7.39182 20.9087 7.57515C20.851 7.75848 20.8611 7.95541 20.9372 8.13238C21.0134 8.30934 21.1508 8.4554 21.3262 8.54566C21.5015 8.63592 21.7039 8.66479 21.8989 8.62735C22.0939 8.58992 22.2693 8.4885 22.3954 8.34037C22.5215 8.19224 22.5903 8.00658 22.5902 7.81501C22.5902 7.70632 22.568 7.59871 22.5248 7.49831C22.4816 7.39791 22.4183 7.30668 22.3385 7.22985ZM21.7308 6.50426C21.416 6.50422 21.1109 6.60937 20.8676 6.80179C20.6242 6.9942 20.4576 7.26198 20.3962 7.55949C20.3347 7.857 20.3822 8.16584 20.5306 8.43337C20.679 8.70091 20.9191 8.91059 21.2099 9.02669C21.5007 9.14279 21.8243 9.15813 22.1256 9.07008C22.4268 8.98204 22.6871 8.79606 22.862 8.54384C23.0369 8.29163 23.1156 7.98877 23.0848 7.68689C23.0539 7.385 22.9154 7.10277 22.6928 6.88827C22.5666 6.76641 22.4166 6.66975 22.2515 6.60386C22.0865 6.53796 21.9095 6.50411 21.7308 6.50426ZM22.3385 19.6266C22.198 19.4912 22.013 19.4069 21.8152 19.3882C21.6174 19.3695 21.4189 19.4174 21.2537 19.5238C21.0884 19.6303 20.9666 19.7886 20.9089 19.9719C20.8513 20.1552 20.8613 20.3521 20.9375 20.5291C21.0136 20.706 21.151 20.852 21.3263 20.9423C21.5016 21.0325 21.704 21.0614 21.899 21.024C22.0939 20.9866 22.2693 20.8852 22.3954 20.7371C22.5215 20.589 22.5903 20.4033 22.5902 20.2118C22.5903 20.1031 22.5681 19.9955 22.5249 19.8951C22.4817 19.7946 22.4184 19.7034 22.3385 19.6266ZM21.7308 18.901C21.416 18.901 21.1109 19.0062 20.8676 19.1986C20.6242 19.391 20.4576 19.6588 20.3962 19.9563C20.3347 20.2538 20.3822 20.5626 20.5306 20.8302C20.679 21.0977 20.9191 21.3074 21.2099 21.4235C21.5007 21.5396 21.8243 21.5549 22.1256 21.4669C22.4268 21.3788 22.6871 21.1928 22.862 20.9406C23.0369 20.6884 23.1156 20.3856 23.0848 20.0837C23.0539 19.7818 22.9154 19.4996 22.6928 19.2851C22.5666 19.1632 22.4166 19.0665 22.2515 19.0006C22.0865 18.9347 21.9095 18.9009 21.7308 18.901ZM9.47389 7.22985C9.33328 7.09417 9.1482 7.00967 8.95018 6.99076C8.75215 6.97185 8.55346 7.0197 8.38795 7.12616C8.22245 7.23262 8.10038 7.39109 8.04256 7.57456C7.98474 7.75804 7.99474 7.95516 8.07086 8.13232C8.14698 8.30948 8.2845 8.45572 8.45999 8.54612C8.63549 8.63651 8.83808 8.66546 9.03324 8.62803C9.2284 8.5906 9.40405 8.48911 9.53025 8.34085C9.65645 8.1926 9.72538 8.00676 9.7253 7.81501C9.72521 7.59557 9.63479 7.38513 9.47389 7.22985ZM8.86589 6.50442C8.55109 6.50439 8.24601 6.60954 8.00264 6.80195C7.75928 6.99437 7.59268 7.26215 7.53124 7.55966C7.4698 7.85717 7.51732 8.166 7.66569 8.43354C7.81407 8.70107 8.05413 8.91076 8.34496 9.02686C8.63579 9.14296 8.95941 9.15829 9.26066 9.07025C9.56191 8.9822 9.82216 8.79623 9.99706 8.54401C10.172 8.29179 10.2507 7.98894 10.2198 7.68705C10.189 7.38517 10.0505 7.10293 9.82786 6.88844C9.70167 6.76653 9.55172 6.66984 9.38664 6.60394C9.22155 6.53804 9.04458 6.50422 8.86589 6.50442ZM9.47389 19.6266C9.3333 19.491 9.14823 19.4065 8.95024 19.3876C8.75225 19.3687 8.55359 19.4166 8.38811 19.523C8.22263 19.6294 8.10059 19.7879 8.04278 19.9713C7.98497 20.1548 7.99497 20.3519 8.07107 20.529C8.14718 20.7062 8.28469 20.8524 8.46015 20.9428C8.63561 21.0331 8.83818 21.0621 9.03331 21.0247C9.22844 20.9872 9.40407 20.8858 9.53026 20.7375C9.65644 20.5893 9.72537 20.4035 9.7253 20.2118C9.72533 19.9923 9.6349 19.7818 9.47389 19.6266ZM8.86589 18.901C8.55109 18.901 8.24601 19.0062 8.00264 19.1986C7.75928 19.391 7.59268 19.6588 7.53124 19.9563C7.4698 20.2538 7.51732 20.5626 7.66569 20.8302C7.81407 21.0977 8.05413 21.3074 8.34496 21.4235C8.63579 21.5396 8.95941 21.5549 9.26066 21.4669C9.56191 21.3788 9.82216 21.1928 9.99706 20.9406C10.172 20.6884 10.2507 20.3856 10.2198 20.0837C10.189 19.7818 10.0505 19.4996 9.82786 19.2851C9.70167 19.1631 9.55172 19.0665 9.38664 19.0006C9.22155 18.9347 9.04458 18.9008 8.86589 18.901ZM8.59631 16.7628V11.5447C8.59532 11.4813 8.56848 11.4208 8.52158 11.3762C8.47468 11.3317 8.41149 11.3068 8.34566 11.3068C8.27983 11.3068 8.21664 11.3317 8.16974 11.3762C8.12284 11.4208 8.096 11.4813 8.09501 11.5447V16.7623C8.096 16.8257 8.12284 16.8863 8.16974 16.9308C8.21664 16.9753 8.27983 17.0002 8.34566 17.0002C8.41149 17.0002 8.47468 16.9753 8.52158 16.9308C8.56848 16.8863 8.59532 16.8257 8.59631 16.7623V16.7628ZM18.1507 20.4718H12.7219C12.6554 20.4718 12.5916 20.4972 12.5446 20.5426C12.4976 20.5879 12.4711 20.6493 12.4711 20.7134C12.4711 20.7775 12.4976 20.839 12.5446 20.8843C12.5916 20.9296 12.6554 20.9551 12.7219 20.9551H18.1507C18.2172 20.9551 18.281 20.9296 18.3281 20.8843C18.3751 20.839 18.4015 20.7775 18.4015 20.7134C18.4015 20.6493 18.3751 20.5879 18.3281 20.5426C18.281 20.4972 18.2172 20.4718 18.1507 20.4718ZM22.0003 11.2654V16.4271C22.0013 16.4905 22.0282 16.551 22.0751 16.5955C22.122 16.6401 22.1852 16.665 22.251 16.665C22.3168 16.665 22.38 16.6401 22.4269 16.5955C22.4738 16.551 22.5007 16.4905 22.5016 16.4271V11.2651C22.5021 11.2331 22.496 11.2013 22.4837 11.1716C22.4713 11.1419 22.4529 11.1148 22.4296 11.092C22.4063 11.0692 22.3785 11.051 22.3478 11.0387C22.3171 11.0263 22.2842 11.0199 22.251 11.0199C22.2178 11.0199 22.1849 11.0263 22.1542 11.0387C22.1235 11.051 22.0957 11.0692 22.0724 11.092C22.0491 11.1148 22.0307 11.1419 22.0183 11.1716C22.006 11.2013 21.9998 11.2331 22.0003 11.2651V11.2654ZM12.4459 7.5559H17.7957C17.8615 7.55494 17.9242 7.52909 17.9704 7.48392C18.0166 7.43875 18.0425 7.37789 18.0425 7.31448C18.0425 7.25108 18.0166 7.19021 17.9704 7.14504C17.9242 7.09987 17.8615 7.07402 17.7957 7.07306H12.4459C12.4127 7.07258 12.3797 7.07847 12.3489 7.09039C12.3181 7.1023 12.29 7.12001 12.2663 7.14247C12.2427 7.16494 12.2239 7.19172 12.211 7.22125C12.1982 7.25078 12.1916 7.28247 12.1916 7.31448C12.1916 7.34649 12.1982 7.37819 12.211 7.40772C12.2239 7.43725 12.2427 7.46402 12.2663 7.48649C12.29 7.50895 12.3181 7.52666 12.3489 7.53858C12.3797 7.55049 12.4127 7.55638 12.4459 7.5559ZM17.6985 17.0701C17.7016 17.0432 17.7042 17.0149 17.7065 16.9856C17.711 16.9279 17.7133 16.8675 17.7133 16.8044C17.7171 16.4965 17.6575 16.1909 17.5378 15.9054C17.4181 15.6199 17.2409 15.36 17.0163 15.141C16.7916 14.922 16.5241 14.7481 16.2293 14.6294C15.9344 14.5107 15.618 14.4496 15.2985 14.4496C14.9789 14.4496 14.6625 14.5107 14.3677 14.6294C14.0728 14.7481 13.8053 14.922 13.5807 15.141C13.3561 15.36 13.1788 15.6199 13.0591 15.9054C12.9395 16.1909 12.8798 16.4965 12.8836 16.8044C12.8836 16.8675 12.8859 16.9279 12.8905 16.9856C12.8931 17.0149 12.8954 17.0432 12.8987 17.0701C13.5897 17.5737 14.4324 17.8463 15.2988 17.8463C16.1651 17.8463 17.0078 17.5737 17.6988 17.0701H17.6985ZM16.2135 11.8651C16.0017 11.6609 15.7231 11.5339 15.425 11.5056C15.1269 11.4773 14.8279 11.5494 14.5788 11.7097C14.3297 11.8701 14.1461 12.1087 14.0591 12.3849C13.9722 12.6611 13.9873 12.9578 14.1019 13.2244C14.2165 13.4911 14.4236 13.7112 14.6877 13.8472C14.9519 13.9833 15.2568 14.0269 15.5506 13.9705C15.8444 13.9142 16.1088 13.7615 16.2988 13.5383C16.4888 13.3152 16.5926 13.0355 16.5926 12.7469C16.5928 12.5831 16.5594 12.4209 16.4944 12.2695C16.4293 12.1182 16.3339 11.9807 16.2135 11.8651ZM15.2984 11.0167C15.6535 11.0168 16.0006 11.1183 16.2959 11.3084C16.5912 11.4986 16.8213 11.7688 16.9572 12.085C17.0931 12.4011 17.1286 12.749 17.0594 13.0847C16.9901 13.4203 16.8191 13.7286 16.568 13.9706C16.4913 14.0446 16.4077 14.1117 16.3183 14.171C16.8453 14.3611 17.3041 14.6939 17.6395 15.1294C17.9749 15.5649 18.1725 16.0845 18.2087 16.6257C18.7365 16.0795 19.0874 15.3967 19.2181 14.6611C19.3489 13.9254 19.2539 13.169 18.9449 12.4847C18.6358 11.8003 18.126 11.2179 17.4782 10.8088C16.8304 10.3996 16.0728 10.1817 15.2982 10.1817C14.5237 10.1817 13.766 10.3996 13.1182 10.8088C12.4704 11.2179 11.9606 11.8003 11.6516 12.4847C11.3425 13.169 11.2475 13.9254 11.3783 14.6611C11.5091 15.3967 11.8599 16.0795 12.3878 16.6257C12.4242 16.0846 12.622 15.5651 12.9573 15.1297C13.2926 14.6942 13.7513 14.3613 14.2782 14.171C14.1888 14.1117 14.1052 14.0446 14.0285 13.9706C13.7773 13.7286 13.6063 13.4203 13.537 13.0846C13.4677 12.749 13.5032 12.4011 13.6391 12.0849C13.7751 11.7687 14.0052 11.4985 14.3005 11.3083C14.5958 11.1182 14.943 11.0167 15.2982 11.0167H15.2984ZM22.3812 5.3848C22.3716 5.32839 22.3416 5.27708 22.2964 5.24002C22.2513 5.20296 22.1939 5.18256 22.1346 5.18246V5.18175H21.3277C21.265 5.18183 21.2046 5.20451 21.1584 5.24532C21.1122 5.28614 21.0835 5.34214 21.078 5.4023L20.9946 5.89772C20.969 5.90658 20.944 5.91593 20.9189 5.92605C20.8938 5.93616 20.8693 5.94677 20.8442 5.9576L20.4066 5.6537C20.3584 5.62038 20.2995 5.60467 20.2404 5.60937C20.1813 5.61407 20.1259 5.63888 20.0841 5.67935V5.67859L19.5131 6.2282C19.4685 6.2713 19.4424 6.32906 19.4401 6.3899C19.4378 6.45074 19.4594 6.51018 19.5006 6.55632L19.8032 6.96101C19.7918 6.98518 19.7805 7.00908 19.7707 7.0332C19.761 7.05731 19.7502 7.08154 19.7405 7.10593L19.2085 7.18949C19.15 7.19858 19.0967 7.22746 19.0582 7.27094C19.0198 7.31443 18.9986 7.36969 18.9986 7.42684H18.9978V8.20417C18.9978 8.26456 19.0213 8.32278 19.0636 8.36732C19.1059 8.41187 19.164 8.43951 19.2265 8.44479L19.7403 8.52513C19.75 8.54952 19.7598 8.57369 19.77 8.59786C19.7802 8.62203 19.7915 8.64593 19.803 8.67005L19.4879 9.09153C19.4532 9.13785 19.4368 9.19456 19.4415 9.25149C19.4462 9.30843 19.4718 9.36189 19.5137 9.40231L19.5129 9.40281L20.0838 9.95241C20.1285 9.99552 20.1884 10.0208 20.2516 10.023C20.3148 10.0253 20.3765 10.0045 20.4244 9.96472L20.8443 9.6734C20.8694 9.68434 20.8939 9.69527 20.919 9.70474C20.9441 9.7142 20.9691 9.72442 20.9947 9.73405L21.0812 10.2465C21.0907 10.3029 21.1208 10.3543 21.166 10.3913C21.2112 10.4283 21.2687 10.4486 21.328 10.4485V10.4493H22.1342C22.1968 10.4491 22.2571 10.4264 22.3033 10.3856C22.3494 10.3448 22.3781 10.2888 22.3836 10.2287L22.4667 9.73405C22.4926 9.72442 22.5178 9.71507 22.5427 9.70495C22.5675 9.69484 22.5923 9.68428 22.6174 9.6734L23.055 9.97681C23.103 10.0103 23.1619 10.0261 23.2209 10.0216C23.28 10.0171 23.3355 9.99252 23.3775 9.9522H23.3783L23.9487 9.40259C23.9933 9.35948 24.0194 9.30176 24.0217 9.24093C24.0241 9.18011 24.0026 9.12066 23.9615 9.07446L23.6586 8.66977C23.67 8.64566 23.6813 8.62176 23.6916 8.59759C23.7019 8.57342 23.7116 8.54924 23.7213 8.52485L24.2533 8.44134C24.3119 8.43231 24.3652 8.4034 24.4036 8.35983C24.442 8.31626 24.463 8.2609 24.4628 8.20373H24.4638V7.42673C24.4637 7.36635 24.4402 7.30819 24.3979 7.26366C24.3556 7.21913 24.2975 7.19147 24.2351 7.1861L23.7213 7.10577C23.7116 7.08138 23.7019 7.0572 23.6916 7.03303C23.6813 7.00886 23.6701 6.98502 23.6586 6.96084L23.974 6.53942C24.0085 6.49298 24.0249 6.43624 24.0201 6.37928C24.0153 6.32232 23.9897 6.26885 23.9479 6.22836L23.9487 6.22809L23.3783 5.67848C23.3335 5.63546 23.2736 5.61025 23.2104 5.60788C23.1472 5.60551 23.0854 5.62615 23.0373 5.66568L22.6174 5.95749C22.5923 5.94655 22.5678 5.93562 22.5427 5.92594C22.5176 5.91626 22.4926 5.90647 22.4667 5.89761L22.3808 5.38448L22.3812 5.3848ZM22.3812 17.7816C22.3716 17.7252 22.3415 17.674 22.2964 17.6369C22.2512 17.5999 22.1939 17.5794 22.1346 17.5793V17.5785H21.3277C21.265 17.5786 21.2046 17.6013 21.1584 17.6421C21.1122 17.683 21.0835 17.739 21.078 17.7991L20.9946 18.2943C20.969 18.3034 20.944 18.3128 20.9189 18.3229C20.8938 18.333 20.8693 18.3436 20.8442 18.3547L20.4066 18.0505C20.3584 18.0173 20.2996 18.0016 20.2406 18.0062C20.1815 18.0108 20.1261 18.0354 20.0841 18.0757L19.5131 18.6253C19.4685 18.6684 19.4424 18.7262 19.4401 18.787C19.4378 18.8479 19.4594 18.9073 19.5006 18.9534L19.8032 19.3581C19.7918 19.3822 19.7805 19.4061 19.7707 19.4303C19.761 19.4545 19.7502 19.4786 19.7405 19.503L19.2085 19.5865C19.1499 19.5956 19.0966 19.6245 19.0581 19.668C19.0196 19.7116 18.9985 19.767 18.9986 19.8242H18.9978V20.6009C18.9979 20.6613 19.0214 20.7195 19.0637 20.764C19.106 20.8086 19.1641 20.8362 19.2265 20.8416L19.7403 20.9219C19.75 20.9463 19.7598 20.9705 19.77 20.9946C19.7802 21.0187 19.7915 21.0427 19.803 21.0668L19.4879 21.4885C19.4532 21.5348 19.4368 21.5914 19.4415 21.6483C19.4462 21.7051 19.4718 21.7585 19.5137 21.7988L19.5129 21.7996L20.0838 22.3494C20.1286 22.3924 20.1884 22.4175 20.2516 22.4199C20.3147 22.4222 20.3764 22.4015 20.4244 22.362L20.8443 22.0697C20.8694 22.081 20.8939 22.0919 20.919 22.1017C20.9441 22.1116 20.9691 22.1212 20.9947 22.1301L21.0812 22.6432C21.0906 22.6997 21.1207 22.7511 21.1659 22.7882C21.2112 22.8253 21.2686 22.8456 21.328 22.8455V22.8463H22.1342C22.1968 22.8461 22.2571 22.8234 22.3033 22.7826C22.3494 22.7418 22.3781 22.6858 22.3836 22.6257L22.4667 22.1303C22.4926 22.1214 22.5178 22.1121 22.5427 22.102C22.5675 22.0918 22.5923 22.0812 22.6174 22.0699L23.055 22.3743C23.1032 22.4075 23.162 22.4232 23.221 22.4185C23.2801 22.4139 23.3355 22.3894 23.3775 22.3491L23.3783 22.3496L23.9487 21.7998C23.9933 21.7567 24.0194 21.699 24.0217 21.6382C24.0241 21.5773 24.0026 21.5179 23.9615 21.4717L23.6586 21.067C23.67 21.0428 23.6813 21.0189 23.6916 20.9948C23.7019 20.9706 23.7116 20.9465 23.7213 20.9221L24.2533 20.839C24.3118 20.8298 24.365 20.8008 24.4034 20.7572C24.4418 20.7136 24.4628 20.6583 24.4628 20.6012H24.4638V19.8236C24.4637 19.7632 24.4402 19.705 24.3979 19.6605C24.3556 19.616 24.2975 19.5883 24.2351 19.5829L23.7213 19.5026C23.7116 19.4782 23.7019 19.454 23.6916 19.4299C23.6813 19.4057 23.6701 19.3818 23.6586 19.3577L23.974 18.9362C24.0085 18.8898 24.0249 18.833 24.0201 18.7761C24.0153 18.7191 23.9897 18.6656 23.9479 18.6251H23.9487L23.3783 18.0755C23.3335 18.0325 23.2736 18.0073 23.2103 18.005C23.1471 18.0027 23.0853 18.0235 23.0373 18.0632L22.6174 18.3548C22.5923 18.3438 22.5678 18.3329 22.5427 18.323C22.5176 18.3131 22.4926 18.3035 22.4667 18.2944L22.3808 17.7817L22.3812 17.7816ZM9.51583 5.38453C9.50638 5.32803 9.47634 5.27663 9.4311 5.23954C9.38587 5.20246 9.3284 5.18212 9.26901 5.18219V5.18148H8.46237C8.39972 5.18155 8.33937 5.20423 8.29321 5.24506C8.24705 5.28588 8.21843 5.34189 8.213 5.40203L8.12935 5.89745C8.10403 5.9063 8.07895 5.91566 8.05386 5.92577C8.02878 5.93589 8.00426 5.9465 7.97923 5.95733L7.54155 5.65343C7.49339 5.62013 7.4345 5.60442 7.37542 5.60912C7.31634 5.61382 7.26092 5.63862 7.21908 5.67908L7.21829 5.67831L6.64792 6.22792C6.6033 6.27102 6.57721 6.32875 6.57484 6.38957C6.57247 6.4504 6.59401 6.50985 6.63515 6.55605L6.93798 6.96073C6.92663 6.98491 6.91528 7.00881 6.90495 7.03292C6.89462 7.05704 6.88503 7.08127 6.87527 7.10566L6.34321 7.18938C6.28466 7.19843 6.23138 7.2273 6.19295 7.2708C6.15451 7.3143 6.13343 7.36959 6.13351 7.42673H6.13271V8.20406C6.1327 8.26445 6.15617 8.32266 6.1985 8.3672C6.24082 8.41175 6.29893 8.43939 6.36137 8.44468L6.87521 8.52502C6.88497 8.54941 6.89468 8.57358 6.9049 8.59775C6.91511 8.62192 6.9264 8.64582 6.93793 8.66994L6.62255 9.09142C6.58797 9.13779 6.5716 9.1945 6.57637 9.25142C6.58114 9.30834 6.60674 9.36178 6.6486 9.4022L6.64786 9.4027L7.21823 9.95231C7.26299 9.99538 7.32297 10.0206 7.38618 10.0229C7.4494 10.0251 7.51117 10.0043 7.55915 9.96461L7.97912 9.67329C8.00415 9.68423 8.02872 9.69517 8.05375 9.70463C8.07878 9.71409 8.10392 9.72431 8.12923 9.73394L8.21567 10.2464C8.22526 10.3027 8.25531 10.354 8.30048 10.391C8.34564 10.428 8.40297 10.4484 8.46226 10.4484V10.4491H9.26895C9.33164 10.4491 9.39203 10.4264 9.43825 10.3856C9.48446 10.3448 9.51315 10.2888 9.51866 10.2286L9.60203 9.73394C9.62763 9.72431 9.65271 9.71496 9.67774 9.70484C9.70277 9.69473 9.7274 9.68417 9.75243 9.67329L10.1901 9.9767C10.2381 10.0102 10.2969 10.0261 10.356 10.0216C10.4151 10.017 10.4707 9.99242 10.5126 9.95209L11.083 9.40248C11.1277 9.35946 11.154 9.30174 11.1564 9.24088C11.1588 9.18003 11.1373 9.12054 11.0961 9.07435L10.7935 8.66967C10.8048 8.64555 10.8162 8.62165 10.826 8.59748C10.8358 8.57331 10.8464 8.54913 10.8562 8.52474L11.3881 8.44124C11.4467 8.43214 11.5 8.40322 11.5385 8.35968C11.577 8.31614 11.5981 8.26081 11.5981 8.20362H11.5989V7.42673C11.5988 7.36635 11.5753 7.30819 11.533 7.26366C11.4907 7.21913 11.4326 7.19147 11.3702 7.1861L10.8564 7.10577C10.8466 7.08138 10.8369 7.0572 10.8267 7.03303C10.8165 7.00886 10.8052 6.98502 10.7937 6.96084L11.1088 6.53942C11.1435 6.49303 11.1599 6.43629 11.1552 6.37931C11.1504 6.32234 11.1248 6.26884 11.083 6.22836V6.22809L10.5126 5.67848C10.4679 5.63544 10.408 5.61022 10.3449 5.60785C10.2818 5.60548 10.2201 5.62613 10.1721 5.66568L9.75209 5.95749C9.72706 5.94655 9.70249 5.93562 9.6774 5.92594C9.65232 5.91626 9.62729 5.9062 9.60169 5.89761L9.51526 5.38448L9.51583 5.38453ZM9.51583 17.7814C9.50638 17.7249 9.47634 17.6735 9.4311 17.6364C9.38587 17.5993 9.3284 17.579 9.26901 17.579V17.5783H8.46237C8.39971 17.5783 8.33936 17.601 8.2932 17.6419C8.24705 17.6827 8.21843 17.7387 8.213 17.7989L8.12935 18.294C8.10403 18.3031 8.07895 18.3125 8.05386 18.3226C8.02878 18.3327 8.00426 18.3433 7.97923 18.3544L7.54155 18.0503C7.4934 18.017 7.43458 18.0013 7.37553 18.0059C7.31649 18.0105 7.26105 18.0351 7.21908 18.0754H7.21829L6.64792 18.625C6.60329 18.6681 6.57719 18.7259 6.57482 18.7867C6.57245 18.8475 6.594 18.907 6.63515 18.9532L6.93798 19.3578C6.92663 19.382 6.91528 19.4059 6.90495 19.43C6.89462 19.4542 6.88503 19.4783 6.87527 19.5028L6.34321 19.5859C6.28459 19.5949 6.23124 19.6238 6.19279 19.6674C6.15433 19.711 6.13331 19.7664 6.13351 19.8236H6.13271V20.6009C6.13277 20.6613 6.15627 20.7195 6.19858 20.764C6.2409 20.8085 6.29896 20.8362 6.36137 20.8416L6.87521 20.9219C6.88497 20.9463 6.89468 20.9705 6.9049 20.9946C6.91511 21.0187 6.9264 21.0427 6.93793 21.0668L6.62255 21.4885C6.58804 21.5348 6.57171 21.5914 6.57648 21.6483C6.58125 21.7051 6.60681 21.7585 6.6486 21.7988L6.64786 21.7996L7.21823 22.3494C7.26305 22.3923 7.32299 22.4175 7.38614 22.4198C7.44929 22.4221 7.51105 22.4015 7.55915 22.362L7.97912 22.0697C8.00415 22.081 8.02872 22.0919 8.05375 22.1017C8.07878 22.1116 8.10392 22.1212 8.12923 22.1301L8.21567 22.6432C8.22511 22.6997 8.25511 22.751 8.3003 22.7881C8.34549 22.8252 8.40291 22.8456 8.46226 22.8455V22.8463H9.26895C9.33164 22.8462 9.39202 22.8235 9.43824 22.7827C9.48445 22.7419 9.51314 22.6859 9.51866 22.6257L9.60203 22.1303C9.62763 22.1214 9.65271 22.1121 9.67774 22.102C9.70277 22.0918 9.7274 22.0812 9.75243 22.0699L10.1901 22.3743C10.2383 22.4075 10.2971 22.4232 10.3561 22.4186C10.4152 22.4139 10.4706 22.3894 10.5126 22.3491V22.3496L11.083 21.7998C11.1277 21.7568 11.154 21.6991 11.1564 21.6382C11.1588 21.5774 11.1373 21.5179 11.0961 21.4717L10.7935 21.067C10.8048 21.0428 10.8162 21.0189 10.826 20.9948C10.8358 20.9706 10.8464 20.9465 10.8562 20.9221L11.3881 20.839C11.4467 20.8297 11.4999 20.8008 11.5384 20.7572C11.5768 20.7136 11.598 20.6583 11.5981 20.6012H11.5989V19.8236C11.5988 19.7632 11.5754 19.705 11.533 19.6605C11.4907 19.616 11.4326 19.5883 11.3702 19.5829L10.8564 19.5026C10.8466 19.4782 10.8369 19.454 10.8267 19.4299C10.8165 19.4057 10.8052 19.3818 10.7937 19.3577L11.1088 18.9362C11.1435 18.8898 11.1599 18.8331 11.1552 18.7761C11.1504 18.7191 11.1248 18.6656 11.083 18.6251L10.5126 18.0755C10.4679 18.0324 10.408 18.0072 10.3448 18.0049C10.2817 18.0027 10.22 18.0235 10.1721 18.0632L9.75209 18.3548C9.72706 18.3438 9.70249 18.3329 9.6774 18.323C9.65232 18.3131 9.62729 18.3035 9.60169 18.2944L9.51583 17.7814Z" fill="black"/>
</svg>
