<svg width="97" height="97" viewBox="0 0 97 97" fill="none" xmlns="http://www.w3.org/2000/svg">
<path d="M61.4662 41.1757L43.2787 29.0507C43.0504 28.8984 42.785 28.8109 42.5108 28.7977C42.2367 28.7844 41.9641 28.8458 41.7221 28.9753C41.4802 29.1049 41.2779 29.2977 41.137 29.5332C40.996 29.7687 40.9217 30.038 40.9219 30.3125V54.5625C40.9216 54.8369 40.9958 55.1063 41.1366 55.3419C41.2774 55.5774 41.4795 55.7704 41.7214 55.9C41.9635 56.0297 42.2362 56.0911 42.5105 56.0778C42.7848 56.0644 43.0503 55.9768 43.2787 55.8243L61.4662 43.6993C61.6741 43.5609 61.8446 43.3733 61.9625 43.1532C62.0804 42.9331 62.1421 42.6872 62.1421 42.4375C62.1421 42.1878 62.0804 41.9419 61.9625 41.7218C61.8446 41.5017 61.6741 41.3141 61.4662 41.1757ZM43.9531 51.7321V33.1429L57.8931 42.4375L43.9531 51.7321ZM81.8438 16.6719H15.1562C13.9503 16.6719 12.7938 17.1509 11.9411 18.0036C11.0884 18.8563 10.6094 20.0128 10.6094 21.2188V63.6562C10.6094 64.8622 11.0884 66.0187 11.9411 66.8714C12.7938 67.7241 13.9503 68.2031 15.1562 68.2031H81.8438C83.0497 68.2031 84.2062 67.7241 85.0589 66.8714C85.9116 66.0187 86.3906 64.8622 86.3906 63.6562V21.2188C86.3906 20.0128 85.9116 18.8563 85.0589 18.0036C84.2062 17.1509 83.0497 16.6719 81.8438 16.6719ZM83.3594 63.6562C83.3594 64.0582 83.1997 64.4437 82.9155 64.728C82.6312 65.0122 82.2457 65.1719 81.8438 65.1719H15.1562C14.7543 65.1719 14.3688 65.0122 14.0845 64.728C13.8003 64.4437 13.6406 64.0582 13.6406 63.6562V21.2188C13.6406 20.8168 13.8003 20.4313 14.0845 20.147C14.3688 19.8628 14.7543 19.7031 15.1562 19.7031H81.8438C82.2457 19.7031 82.6312 19.8628 82.9155 20.147C83.1997 20.4313 83.3594 20.8168 83.3594 21.2188V63.6562ZM86.3906 78.8125C86.3906 79.2145 86.2309 79.6 85.9467 79.8842C85.6625 80.1684 85.277 80.3281 84.875 80.3281H12.125C11.723 80.3281 11.3375 80.1684 11.0533 79.8842C10.7691 79.6 10.6094 79.2145 10.6094 78.8125C10.6094 78.4105 10.7691 78.025 11.0533 77.7408C11.3375 77.4566 11.723 77.2969 12.125 77.2969H84.875C85.277 77.2969 85.6625 77.4566 85.9467 77.7408C86.2309 78.025 86.3906 78.4105 86.3906 78.8125Z" fill="#AB3335"/>
</svg>
