<svg width="98" height="98" viewBox="0 0 98 98" fill="none" xmlns="http://www.w3.org/2000/svg">
<path d="M85.75 18.375H24.5C20.825 18.375 18.375 20.825 18.375 24.5V67.375C18.375 71.05 20.825 73.5 24.5 73.5H49V67.375H24.5V24.5H85.75V67.375H63.7L49 88.2L53.9 91.875L66.7625 73.5H85.75C89.425 73.5 91.875 71.05 91.875 67.375V24.5C91.875 20.825 89.425 18.375 85.75 18.375Z" fill="#03014C"/>
<path d="M12.25 55.125H6.125V15.3125C6.125 10.1062 10.1062 6.125 15.3125 6.125H55.125V12.25H15.3125C13.475 12.25 12.25 13.475 12.25 15.3125V55.125Z" fill="#03014C"/>
</svg>
