<svg width="27" height="21" viewBox="0 0 27 21" fill="none" xmlns="http://www.w3.org/2000/svg">
<g clip-path="url(#clip0_1792_1391)">
<path d="M4.9087 20.8961V19.5062C4.9087 18.9733 4.58448 18.6259 4.02877 18.6259C3.75096 18.6259 3.44996 18.7185 3.24155 19.0197C3.07955 18.7649 2.84805 18.6259 2.50074 18.6259C2.26913 18.6259 2.03773 18.6953 1.85242 18.9502V18.6722H1.36621V20.8961H1.85242V19.6683C1.85242 19.2746 2.06083 19.0891 2.38504 19.0891C2.70904 19.0891 2.87125 19.2977 2.87125 19.6683V20.8961H3.35746V19.6683C3.35746 19.2746 3.58886 19.0891 3.88987 19.0891C4.21408 19.0891 4.37608 19.2977 4.37608 19.6683V20.8961H4.9087ZM12.1092 18.6722H11.322V18.0004H10.8358V18.6722H10.3959V19.1122H10.8357V20.1316C10.8357 20.6413 11.0441 20.9424 11.5998 20.9424C11.8082 20.9424 12.0396 20.873 12.2019 20.7803L12.0629 20.3633C11.9239 20.4559 11.7619 20.4791 11.6461 20.4791C11.4146 20.4791 11.322 20.3402 11.322 20.1084V19.1122H12.1092V18.6722ZM16.2304 18.6258C15.9526 18.6258 15.7674 18.7649 15.6516 18.9502V18.6722H15.1654V20.8961H15.6516V19.6452C15.6516 19.2746 15.8136 19.066 16.1146 19.066C16.2072 19.066 16.3231 19.0892 16.4157 19.1124L16.5546 18.6491C16.462 18.6259 16.3231 18.6259 16.2304 18.6259M10.0023 18.8576C9.7707 18.6954 9.44659 18.626 9.09929 18.626C8.54368 18.626 8.17327 18.9039 8.17327 19.3441C8.17327 19.7148 8.45107 19.9232 8.93729 19.9928L9.16879 20.016C9.4235 20.0622 9.5624 20.1318 9.5624 20.2476C9.5624 20.4097 9.3772 20.5256 9.05298 20.5256C8.72888 20.5256 8.47417 20.4097 8.31207 20.2939L8.08056 20.6646C8.33527 20.8499 8.68258 20.9425 9.02978 20.9425C9.6781 20.9425 10.0486 20.6414 10.0486 20.2244C10.0486 19.8306 9.7476 19.6221 9.28449 19.5526L9.05298 19.5294C8.84458 19.5062 8.68258 19.46 8.68258 19.321C8.68258 19.1588 8.84458 19.0661 9.09929 19.0661C9.3772 19.0661 9.655 19.1819 9.7939 19.2514L10.0023 18.8576ZM22.9217 18.626C22.6438 18.626 22.4586 18.765 22.3428 18.9503V18.6723H21.8566V20.8962H22.3428V19.6453C22.3428 19.2747 22.5049 19.0661 22.8058 19.0661C22.8985 19.0661 23.0143 19.0893 23.1069 19.1125L23.2458 18.6492C23.1532 18.626 23.0143 18.626 22.9217 18.626ZM16.7167 19.7842C16.7167 20.456 17.1797 20.9425 17.8975 20.9425C18.2216 20.9425 18.4531 20.8731 18.6846 20.6878L18.4531 20.2939C18.2679 20.4329 18.0827 20.5024 17.8743 20.5024C17.4807 20.5024 17.2029 20.2244 17.2029 19.7842C17.2029 19.3673 17.4807 19.0892 17.8743 19.0661C18.0827 19.0661 18.2679 19.1356 18.4531 19.2747L18.6846 18.8808C18.4531 18.6954 18.2216 18.626 17.8975 18.626C17.1797 18.626 16.7167 19.1125 16.7167 19.7842ZM21.2084 19.7842V18.6723H20.7222V18.9503C20.56 18.7418 20.3285 18.626 20.0275 18.626C19.4024 18.626 18.9162 19.1125 18.9162 19.7842C18.9162 20.456 19.4024 20.9425 20.0275 20.9425C20.3516 20.9425 20.5833 20.8268 20.7222 20.6182V20.8962H21.2084V19.7842ZM19.4255 19.7842C19.4255 19.3904 19.6802 19.0661 20.0969 19.0661C20.4905 19.0661 20.7685 19.3673 20.7685 19.7842C20.7685 20.1781 20.4905 20.5024 20.0969 20.5024C19.6802 20.4791 19.4255 20.1781 19.4255 19.7842ZM13.6142 18.626C12.9659 18.626 12.5028 19.0892 12.5028 19.7842C12.5028 20.4793 12.9658 20.9425 13.6373 20.9425C13.9614 20.9425 14.2856 20.8499 14.5403 20.6415L14.3087 20.2939C14.1235 20.4329 13.892 20.5256 13.6605 20.5256C13.3595 20.5256 13.0585 20.3866 12.989 19.9927H14.6329V19.8075C14.6561 19.0892 14.2394 18.626 13.6142 18.626ZM13.6141 19.0429C13.915 19.0429 14.1235 19.2283 14.1697 19.5758H13.0121C13.0584 19.2747 13.2668 19.0429 13.6141 19.0429ZM25.6768 19.7842V17.792H25.1905V18.9503C25.0284 18.7418 24.7969 18.626 24.4959 18.626C23.8708 18.626 23.3846 19.1125 23.3846 19.7842C23.3846 20.456 23.8708 20.9425 24.4959 20.9425C24.8201 20.9425 25.0516 20.8268 25.1905 20.6182V20.8962H25.6768V19.7842ZM23.894 19.7842C23.894 19.3904 24.1486 19.0661 24.5654 19.0661C24.959 19.0661 25.2368 19.3673 25.2368 19.7842C25.2368 20.1781 24.959 20.5024 24.5654 20.5024C24.1486 20.4791 23.894 20.1781 23.894 19.7842ZM7.64055 19.7842V18.6723H7.15434V18.9503C6.99223 18.7418 6.76073 18.626 6.45972 18.626C5.83461 18.626 5.34839 19.1125 5.34839 19.7842C5.34839 20.456 5.83461 20.9425 6.45972 20.9425C6.78393 20.9425 7.01543 20.8268 7.15434 20.6182V20.8962H7.64055V19.7842ZM5.83461 19.7842C5.83461 19.3904 6.08931 19.0661 6.50602 19.0661C6.89963 19.0661 7.17754 19.3673 7.17754 19.7842C7.17754 20.1781 6.89963 20.5024 6.50602 20.5024C6.08931 20.4791 5.83461 20.1781 5.83461 19.7842Z" fill="black"/>
<path d="M9.83984 1.78418H17.133V14.8961H9.83984V1.78418Z" fill="#FF5F00"/>
<path d="M10.3031 8.33974C10.3031 5.6757 11.5534 3.31272 13.475 1.78373C12.0628 0.671789 10.28 0 8.3352 0C3.72758 0 0 3.72966 0 8.33974C0 12.9497 3.72758 16.6795 8.33509 16.6795C10.2799 16.6795 12.0627 16.0077 13.475 14.8956C11.5534 13.3899 10.3031 11.0038 10.3031 8.33974Z" fill="#EB001B"/>
<path d="M26.9731 8.33974C26.9731 12.9497 23.2455 16.6795 18.638 16.6795C16.6931 16.6795 14.9104 16.0077 13.498 14.8956C15.4429 13.3668 16.67 11.0038 16.67 8.33974C16.67 5.6757 15.4197 3.31272 13.498 1.78373C14.9103 0.671789 16.6931 0 18.638 0C23.2455 0 26.9731 3.75288 26.9731 8.33974Z" fill="#F79E1B"/>
</g>
<defs>
<clipPath id="clip0_1792_1391">
<rect width="27" height="21" fill="white"/>
</clipPath>
</defs>
</svg>
