<svg width="43" height="19" viewBox="0 0 43 19" fill="none" xmlns="http://www.w3.org/2000/svg">
<g clip-path="url(#clip0_1792_1389)">
<path d="M16.3261 0.243333L10.6962 13.5697H7.02345L4.25297 2.934C4.085 2.2805 3.93904 2.04 3.42791 1.76367C2.59243 1.31333 1.21273 0.892167 0 0.630167L0.0818008 0.243333H5.99497C6.74747 0.243333 7.42506 0.7405 7.59739 1.60133L9.06124 9.3135L12.6753 0.243333H16.3261ZM21.2912 0.243333L18.4184 13.5697H14.9435L17.8166 0.243333H21.2912ZM30.7169 9.21867C30.7314 5.70217 25.8166 5.507 25.8487 3.93583C25.8605 3.45817 26.319 2.94967 27.3228 2.81967C27.82 2.75583 29.1936 2.705 30.7495 3.41633L31.3583 0.588667C30.5223 0.288667 29.4464 0 28.1082 0C24.6733 0 22.257 1.81033 22.2377 4.40467C22.2152 6.32367 23.9636 7.39317 25.2785 8.03233C26.6328 8.685 27.087 9.1045 27.0808 9.68783C27.071 10.582 25.999 10.9778 25.0025 10.9925C23.2549 11.02 22.2419 10.5238 21.4338 10.1503L20.8031 13.0717C21.6161 13.4413 23.1143 13.7625 24.6662 13.7788C28.3179 13.7788 30.7062 11.9892 30.7169 9.21867ZM39.7873 13.5698H43L40.1932 0.243333H37.2291C36.5606 0.243333 35.9987 0.628333 35.7495 1.22017L30.5357 13.5697H34.1845L34.9083 11.579H39.3662L39.7873 13.5698ZM35.9089 8.84833L37.7384 3.84383L38.7894 8.84833H35.9089ZM25.7384 17.238H24.3264V18.5418H25.9057V18.9338H23.8507V15.3167H25.8247V15.7087H24.3264V16.8515H25.7382L25.7384 17.238ZM26.6351 15.1237H27.1108V18.9337H26.6351V15.1237ZM28.3111 17.7208C28.3219 18.3597 28.7277 18.6225 29.2088 18.6225C29.5497 18.6225 29.7605 18.5635 29.9339 18.4885L30.0202 18.8267C29.8526 18.9017 29.5607 18.9928 29.1439 18.9928C28.3383 18.9928 27.8571 18.4617 27.8571 17.678C27.8571 16.8947 28.3219 16.2827 29.0846 16.2827C29.9446 16.2827 30.1663 17.0235 30.1663 17.501C30.1663 17.5975 30.1608 17.6672 30.1499 17.721L28.3111 17.7208ZM29.7064 17.3828C29.712 17.0878 29.5822 16.6208 29.0467 16.6208C28.5599 16.6208 28.3543 17.0555 28.3163 17.3828H29.7064ZM32.7558 18.8425C32.6315 18.9017 32.3555 18.993 32.0041 18.993C31.2145 18.993 30.7007 18.4617 30.7007 17.6673C30.7007 16.8677 31.2521 16.2828 32.1067 16.2828C32.3879 16.2828 32.6367 16.3523 32.7665 16.4223L32.6587 16.7818C32.5446 16.7228 32.3662 16.6582 32.1067 16.6582C31.5062 16.6582 31.1821 17.1037 31.1821 17.6407C31.1821 18.2415 31.5714 18.6118 32.0906 18.6118C32.361 18.6118 32.5394 18.5475 32.6746 18.4885L32.7558 18.8425ZM34.0908 15.7138V16.3363H34.772V16.6957H34.0908V18.0965C34.0908 18.4188 34.1828 18.601 34.4477 18.601C34.5774 18.601 34.6533 18.5905 34.7237 18.5687L34.7453 18.9287C34.6533 18.9607 34.5073 18.9928 34.3234 18.9928C34.1015 18.9928 33.923 18.9177 33.8096 18.7945C33.6798 18.6493 33.6257 18.4188 33.6257 18.1128V16.6957H33.2199V16.3363H33.6257V15.8533L34.0908 15.7138ZM35.4367 17.1468C35.4367 16.8408 35.431 16.578 35.415 16.3363H35.8316L35.8534 16.8513H35.8692C35.9885 16.5028 36.2802 16.2827 36.5992 16.2827C36.6481 16.2827 36.6861 16.2882 36.7294 16.2933V16.739C36.6807 16.728 36.6321 16.728 36.5668 16.728C36.2319 16.728 35.9935 16.9748 35.9289 17.3293C35.9177 17.4021 35.9122 17.4757 35.9126 17.5493V18.934H35.4367V17.1468ZM39.6546 17.6135C39.6546 18.5742 38.9783 18.9928 38.3511 18.9928C37.6478 18.9928 37.0964 18.4775 37.0964 17.6567C37.0964 16.7925 37.6751 16.2828 38.3945 16.2828C39.1461 16.2828 39.6546 16.8243 39.6546 17.6135ZM37.583 17.6407C37.583 18.2095 37.9075 18.639 38.3726 18.639C38.8272 18.639 39.1676 18.2147 39.1676 17.6298C39.1676 17.1898 38.9459 16.6368 38.3834 16.6368C37.8266 16.6368 37.583 17.1523 37.583 17.6407ZM40.3839 17.0395C40.3839 16.766 40.3782 16.5512 40.362 16.3367H40.784L40.811 16.766H40.8218C40.9516 16.5243 41.2545 16.283 41.6872 16.283C42.0493 16.283 42.612 16.4977 42.612 17.3882V18.934H42.1361V17.4367C42.1361 17.0183 41.9793 16.6692 41.5304 16.6692C41.2221 16.6692 40.9785 16.8893 40.8923 17.1522C40.8705 17.2113 40.8597 17.2917 40.8597 17.3723V18.934H40.3839V17.0395Z" fill="#1A1F71"/>
</g>
<defs>
<clipPath id="clip0_1792_1389">
<rect width="43" height="19" fill="white"/>
</clipPath>
</defs>
</svg>
